<?xml version="1.0" encoding="UTF-8"?>
<svg id="Layer_1" data-name="Layer 1" xmlns="http://www.w3.org/2000/svg" xmlns:xlink="http://www.w3.org/1999/xlink" viewBox="0 0 42 42">
  <defs>
    <style>
      .cls-1 {
        fill: url(#linear-gradient);
        stroke: url(#linear-gradient-2);
      }

      .cls-1, .cls-2 {
        stroke-width: .25px;
      }

      .cls-2 {
        fill: url(#linear-gradient-4);
        stroke: url(#linear-gradient-5);
      }

      .cls-3 {
        fill: url(#linear-gradient-3);
        isolation: isolate;
        opacity: .15;
      }
    </style>
    <linearGradient id="linear-gradient" x1="4.7" y1="21" x2="37.3" y2="21" gradientUnits="userSpaceOnUse">
      <stop offset=".26" stop-color="#ffdb6e"/>
      <stop offset="1" stop-color="#ffbc5e"/>
    </linearGradient>
    <linearGradient id="linear-gradient-2" x1="4.51" y1="20.97" x2="37.43" y2="20.97" gradientUnits="userSpaceOnUse">
      <stop offset=".26" stop-color="#ffdb6e"/>
      <stop offset="1" stop-color="#ffbc5e"/>
    </linearGradient>
    <linearGradient id="linear-gradient-3" x1="6.51" y1="26.36" x2="34.96" y2="26.36" gradientUnits="userSpaceOnUse">
      <stop offset=".26" stop-color="#ffdb6e"/>
      <stop offset="1" stop-color="#ffbc5e"/>
    </linearGradient>
    <linearGradient id="linear-gradient-4" x1="11.58" y1="17.71" x2="17.59" y2="17.71" xlink:href="#linear-gradient"/>
    <linearGradient id="linear-gradient-5" x1="11.46" y1="17.71" x2="17.73" y2="17.71" xlink:href="#linear-gradient-2"/>
  </defs>
  <path class="cls-1" d="M13.9,2.45c.69.14,1.32.29,1.96.61,1.7.87,2.86,2.68,2.9,4.6l1.48-4.78,5.91,2.46-1.81.94,1.52,3.3c.64.01,1.5.2,2.03-.22.1-.08.43-.48.43-.58v-2.72h-1.16v-3.62h3.55v3.62h-1.16v2.57c0,.06-.15.59-.18.69-.45,1.22-1.74,1.56-2.93,1.56l1.1,2.34h2.8s3.53-8.17,3.53-8.17l3.44-2.54v4.31l-2.68,6.41h1.12l.1.12c.48,3.48.52,7.23-.71,10.57-.97,2.64-2.66,4.92-4.82,6.7-.22.18-.5.4-.76.51v8.4h-14.35v-5.36h-6.01v-7.61l-4.49-1.05,4.02-7.14c.1-.38-.1-1-.11-1.41-.06-1.26.12-2.49.29-3.73.27-.06,1.43.12,1.51-.12.16-.9-.11-.8-.61-1.26-2.98-2.75-2.12-7.52,1.61-9.04l1.47-.38h1.01ZM11.58,11.69v1.56h1.12c.1-.06.1-.14.11-.25.12-1.03-.1-2.28,0-3.34-.03-.22-.31-.22-.46-.34-1.83-1.35-.1-4.07,1.89-3.04,1.41.73,1.13,2.73-.27,3.31v3.66h1.12c.28-.27-.02-1.43.12-1.65,2.79-1.37,3.18-5.22.66-7.1s-5.92-.53-6.57,2.39c-.46,2.09.53,3.75,2.27,4.81ZM29.55,3.68h-1.23v1.16h1.23v-1.16ZM22.34,9.63h2.21l-1.73-3.91s.58-.14.43-.29l-2.28-.94-.62,2.17.47-.21,1.52,3.18ZM36.14,4.92c-.05-.06-.49.28-.56.34-.05.04-.14,0-.09.16l.65.22v-.72ZM31.65,13.25h1.63l2.65-6.27v-.1s-1.26-.58-1.26-.58l-3.01,6.95ZM13.3,7.25c-.71.09-.65,1.24.12,1.2s.65-1.3-.12-1.2ZM16.36,13.25h2.39v-1.41c0-.72.69-1.62,1.33-1.93.16-.08.91-.24.92-.31l-.77-1.48-1.61.84c-.26,1.37-1.1,2.57-2.23,3.35l-.04.94ZM19.99,11.69c-.09.43.06,1.1,0,1.56h2.61l-1.03-2.38c-.56-.19-1.47.24-1.58.82ZM25.13,10.86h-2.25l1.12,2.39h2.14l-1.01-2.39ZM34.76,14.41H9.91c0,.62-.12,1.29-.12,1.91,0,.77.17,1.54.17,2.31l-3.46,6.1,3.91,1.01v7.21h5.94v5.36h11.95v-7.72c3.15-2.06,5.48-5.38,6.27-9.09.39-1.82.44-4.19.33-6.05,0-.15-.1-1.02-.15-1.05Z"/>
  <path class="cls-3" d="M34.76,14.41s.14.9.15,1.05c.11,1.87.06,4.23-.33,6.05-.79,3.71-3.11,7.03-6.27,9.09v7.72h-11.95v-5.36h-5.94v-7.21l-3.91-1.01,3.46-6.1c0-.77-.17-1.54-.17-2.31,0-.62.11-1.29.12-1.91h24.85ZM12.81,16.22h-1.23c.01,2.19,2.1,3.52,4.13,2.79,1.17-.42,1.82-1.58,1.89-2.79h-1.23c.08,2.39-3.66,2.39-3.55,0Z"/>
  <path class="cls-2" d="M12.81,16.22c-.11,2.39,3.63,2.39,3.55,0h1.23c-.06,1.2-.71,2.37-1.89,2.79-2.03.73-4.11-.6-4.13-2.79h1.23Z"/>
</svg>