<?xml version="1.0" encoding="UTF-8"?>
<svg id="Layer_1" xmlns="http://www.w3.org/2000/svg" xmlns:xlink="http://www.w3.org/1999/xlink" version="1.1" viewBox="0 0 42 42">
  <!-- Generator: Adobe Illustrator 29.2.1, SVG Export Plug-In . SVG Version: 2.1.0 Build 116)  -->
  <defs>
    <style>
      .st0 {
        fill: url(#linear-gradient);
        fill-rule: evenodd;
        isolation: isolate;
        opacity: .2;
      }

      .st1 {
        fill: url(#linear-gradient1);
        stroke: url(#linear-gradient2);
      }

      .st1, .st2 {
        stroke-width: .2px;
      }

      .st2 {
        fill: url(#linear-gradient3);
        stroke: url(#linear-gradient4);
      }
    </style>
    <linearGradient id="linear-gradient" x1="3" y1="40.7" x2="37.5" y2="2.6" gradientTransform="translate(0 42) scale(1 -1)" gradientUnits="userSpaceOnUse">
      <stop offset=".3" stop-color="#ffdb6e"/>
      <stop offset="1" stop-color="#ffbc5e"/>
    </linearGradient>
    <linearGradient id="linear-gradient1" x1="29.6" y1="12.7" x2="36.1" y2="5.5" gradientTransform="translate(0 42) scale(1 -1)" gradientUnits="userSpaceOnUse">
      <stop offset=".3" stop-color="#ffdb6e"/>
      <stop offset="1" stop-color="#ffbc5e"/>
    </linearGradient>
    <linearGradient id="linear-gradient2" x1="29.6" y1="12.7" x2="36.1" y2="5.5" gradientTransform="translate(0 42) scale(1 -1)" gradientUnits="userSpaceOnUse">
      <stop offset=".3" stop-color="#ffdb6e"/>
      <stop offset="1" stop-color="#ffbc5e"/>
    </linearGradient>
    <linearGradient id="linear-gradient3" x1="3" y1="40.7" x2="37.5" y2="2.6" gradientTransform="translate(0 42) scale(1 -1)" gradientUnits="userSpaceOnUse">
      <stop offset=".3" stop-color="#ffdb6e"/>
      <stop offset="1" stop-color="#ffbc5e"/>
    </linearGradient>
    <linearGradient id="linear-gradient4" x1="3" y1="40.7" x2="37.5" y2="2.6" gradientTransform="translate(0 42) scale(1 -1)" gradientUnits="userSpaceOnUse">
      <stop offset=".3" stop-color="#ffdb6e"/>
      <stop offset="1" stop-color="#ffbc5e"/>
    </linearGradient>
  </defs>
  <path class="st0" d="M40.6,19.8c-.2,0-.5,0-.6.1l-1.8,1.8v-12c0-.3-.3-.6-.6-.6h-4.5l1.6-1.6h0s1.6-1.6,1.6-1.6c.3-.3.5-.8.5-1.3s-.2-.9-.5-1.3l-1.8-1.8c-.3-.3-.8-.5-1.3-.5s-.9.2-1.3.5l-1.6,1.6-1.9,1.9-4.1,4.1H6.2V3.3c0-.3-.3-.6-.6-.6-2.5,0-4.6,2.1-4.6,4.6v25s0,0,0,.1c0,1.1.5,2.1,1.3,2.9.8.8,1.9,1.3,3.1,1.3h17.9l-3.4,3.4c-.2.2-.2.4-.1.6,0,.2.3.4.5.4h20c.3,0,.6-.3.6-.6v-20.1c0-.2-.1-.5-.4-.5ZM32.8,2.4c.2-.2.6-.2.9,0l1.8,1.8c.2.2.2.6,0,.9l-1.2,1.2-2.7-2.7,1.2-1.2ZM30.8,4.4l2.7,2.7-1.1,1.1-2.7-2.7,1.1-1.1ZM18.4,21.8l-1.7.6-1.1-1.1.6-1.7,2.2,2.2ZM35.8,30.2l-5.7,5.7c0,0,0,.2,0,.2h5.8v-5.8c0,0-.1-.1-.2,0ZM16,18.5l3.5,3.5,13-13-3.5-3.5-13,13Z"/>
  <path class="st1" d="M36.4,29.3c-.2,0-.5,0-.6.1l-6.4,6.4c-.2.2-.2.4-.1.6,0,.2.3.4.5.4h6.4c.3,0,.6-.3.6-.6v-6.4c0-.2-.1-.5-.4-.5ZM31.2,35.6l4.4-4.4v4.4h-4.4Z"/>
  <path class="st2" d="M40.6,19.8c-.2,0-.5,0-.6.1l-1.8,1.8v-12c0-.3-.3-.6-.6-.6h-4.5l1.6-1.6s0,0,0,0l1.6-1.6c.3-.3.5-.8.5-1.3s-.2-.9-.5-1.3l-1.8-1.8c-.3-.3-.8-.5-1.3-.5s-.9.2-1.3.5l-1.6,1.6-1.9,1.9-4.1,4.1H6.2V3.3c0-.3-.3-.6-.6-.6-2.5,0-4.6,2.1-4.6,4.6v25s0,0,0,.1c0,1.1.5,2.1,1.3,2.9.8.8,1.9,1.3,3.1,1.3h17.9l-3.4,3.4c-.2.2-.2.4-.1.6,0,.2.3.4.5.4h20c.3,0,.6-.3.6-.6v-20.1c0-.2-.1-.5-.4-.5ZM32.8,2.4c.2-.2.6-.2.9,0l1.8,1.8c.2.2.2.6,0,.9l-1.2,1.2-2.7-2.7,1.2-1.2ZM30.8,4.4l2.7,2.7-1.1,1.1-2.7-2.7,1.1-1.1ZM39.8,27h-1.1c-.3,0-.6.3-.6.6s.3.6.6.6h1.1v1.8h-1.1c-.3,0-.6.3-.6.6s.3.6.6.6h1.1v1.8h-1.1c-.3,0-.6.3-.6.6s.3.6.6.6h1.1v1.8h-1.1c-.3,0-.6.3-.6.6s.3.6.6.6h1.1v2.8h-18l5.9-5.9c.2-.2.2-.6,0-.8,0,0,0,0,0,0-.2-.2-.5-.1-.7,0l-2.4,2.4H5.4c-1.8,0-3.2-1.4-3.3-3.2,0-.1,0-.2,0-.3,0,0,0,0,0,0,0,0,0-.1,0-.2,0,0,0,0,0,0,0,0,0,0,0-.1,0,0,0,0,0,0,0,0,0,0,0-.1,0,0,0,0,0,0,0,0,0,0,0,0,0,0,0,0,0,0,0,0,0,0,0,0,0,0,0,0,0-.1,0,0,0,0,0,0,0,0,0,0,0-.1,0,0,0,0,0,0,.5-1,1.3-1.7,2.4-1.9,0,0,0,0,0,0,0,0,0,0,.1,0,0,0,0,0,0,0,0,0,0,0,.1,0,0,0,0,0,0,0,0,0,0,0,.1,0,0,0,0,0,0,0,0,0,.1,0,.2,0,.3,0,.6-.3.6-.6v-4.3c0-.3-.3-.6-.6-.6s-.6.3-.6.6v3.7c-1,.1-1.9.6-2.6,1.3,0,0-.1.2-.2.2V7.3c0-1.7,1.2-3.1,2.9-3.4v17.8c0,.3.3.6.6.6s.6-.3.6-.6v-11.4h17.1l-3.2,3.3c-.2.2-.2.6,0,.8.2.2.6.2.8,0l4.2-4.3s0,0,0,0l3.8-3.9,2.7,2.7-.3.3s0,0,0,0l-11.8,11.9-2.7-2.7,2.3-2.3c.2-.2.2-.6,0-.8-.2-.2-.6-.2-.8,0l-2.7,2.8s0,0,0,0c0,0,0,0,0,0,0,0,0,0,0,0,0,0,0,0,0,0,0,0,0,0,0,0,0,0,0,0,0,0,0,0,0,0,0,0,0,0,0,0,0,0l-1.1,3.3-.8,2.2s0,0,0,0h-2c-.3,0-.6.3-.6.6s.3.6.6.6h16.3c.3,0,.6-.3.6-.6s-.3-.6-.6-.6h-11.7l3.6-1.3s0,0,0,0c0,0,0,0,0,0,0,0,0,0,0,0,0,0,0,0,0,0,0,0,0,0,0,0,0,0,0,0,0,0,0,0,0,0,0,0,0,0,0,0,0,0l12.1-12.1h5.1v12.6l-8.4,8.4c-.2.2-.2.6,0,.8,0,0,0,0,0,0,.1,0,.2.1.4.1s.3,0,.4-.1c0,0,0,0,0,0h0s10.3-10.4,10.3-10.4v5.2ZM18.4,21.8l-1.7.6-1.1-1.1.6-1.7,2.2,2.2Z"/>
</svg>