<?xml version="1.0" encoding="UTF-8"?>
<svg id="Layer_1" data-name="Layer 1" xmlns="http://www.w3.org/2000/svg" xmlns:xlink="http://www.w3.org/1999/xlink" viewBox="0 0 850.39 850.39">
  <defs>
    <style>
      .cls-1 {
        fill: url(#linear-gradient-7);
      }

      .cls-2 {
        fill: url(#linear-gradient-5);
      }

      .cls-3 {
        fill: url(#linear-gradient-6);
      }

      .cls-4 {
        fill: url(#linear-gradient-4);
      }

      .cls-5 {
        fill: url(#linear-gradient-3);
      }

      .cls-6 {
        fill: url(#linear-gradient-2);
      }

      .cls-7 {
        fill: #b9828a;
      }

      .cls-8 {
        fill: url(#linear-gradient);
      }

      .cls-9 {
        fill: #ffe967;
      }

      .cls-10 {
        font-size: 55.36px;
      }

      .cls-10, .cls-11 {
        font-family: Sligoil-Micro, Sligoil;
      }

      .cls-10, .cls-11, .cls-12 {
        fill: #221f20;
      }

      .cls-11 {
        font-size: 25.5px;
      }

      .cls-13 {
        fill: #d0ccb9;
      }

      .cls-14 {
        fill: #fff;
      }

      .cls-15 {
        fill: #877053;
      }

      .cls-16 {
        fill: #6d604d;
      }

      .cls-17 {
        fill: #38312a;
      }
    </style>
    <linearGradient id="linear-gradient" x1="290.36" y1="529.98" x2="334.6" y2="529.98" gradientUnits="userSpaceOnUse">
      <stop offset="0" stop-color="#6a7691"/>
      <stop offset="1" stop-color="#6b6285"/>
    </linearGradient>
    <linearGradient id="linear-gradient-2" x1="334.6" y1="529.98" x2="378.83" y2="529.98" xlink:href="#linear-gradient"/>
    <linearGradient id="linear-gradient-3" x1="378.83" y1="529.98" x2="423.07" y2="529.98" xlink:href="#linear-gradient"/>
    <linearGradient id="linear-gradient-4" x1="423.07" y1="529.98" x2="467.31" y2="529.98" xlink:href="#linear-gradient"/>
    <linearGradient id="linear-gradient-5" x1="467.31" y1="529.98" x2="511.55" y2="529.98" xlink:href="#linear-gradient"/>
    <linearGradient id="linear-gradient-6" x1="511.55" y1="529.98" x2="555.79" y2="529.98" xlink:href="#linear-gradient"/>
    <linearGradient id="linear-gradient-7" x1="555.79" y1="529.98" x2="600.03" y2="529.98" xlink:href="#linear-gradient"/>
  </defs>
  <rect class="cls-15" x="102.64" y="240.42" width="601.46" height="558.04"/>
  <rect class="cls-17" x="290.36" y="352.8" width="353.91" height="445.67"/>
  <g>
    <path class="cls-8" d="M290.36,352.8h44.24v346.41c0,4.39-3.56,7.95-7.95,7.95h-28.34c-4.39,0-7.95-3.56-7.95-7.95v-346.41h0Z"/>
    <path class="cls-6" d="M334.6,352.8h44.24v346.41c0,4.39-3.56,7.95-7.95,7.95h-28.34c-4.39,0-7.95-3.56-7.95-7.95v-346.41h0Z"/>
    <path class="cls-5" d="M378.83,352.8h44.24v346.41c0,4.39-3.56,7.95-7.95,7.95h-28.34c-4.39,0-7.95-3.56-7.95-7.95v-346.41h0Z"/>
    <path class="cls-4" d="M423.07,352.8h44.24v346.41c0,4.39-3.56,7.95-7.95,7.95h-28.34c-4.39,0-7.95-3.56-7.95-7.95v-346.41h0Z"/>
    <path class="cls-2" d="M467.31,352.8h44.24v346.41c0,4.39-3.56,7.95-7.95,7.95h-28.34c-4.39,0-7.95-3.56-7.95-7.95v-346.41h0Z"/>
    <path class="cls-3" d="M511.55,352.8h44.24v346.41c0,4.39-3.56,7.95-7.95,7.95h-28.34c-4.39,0-7.95-3.56-7.95-7.95v-346.41h0Z"/>
    <path class="cls-1" d="M555.79,352.8h44.24v346.41c0,4.39-3.56,7.95-7.95,7.95h-28.34c-4.39,0-7.95-3.56-7.95-7.95v-346.41h0Z"/>
  </g>
  <g>
    <rect class="cls-14" x="135.01" y="546.9" width="131.53" height="149.91" rx="3.72" ry="3.72"/>
    <rect class="cls-7" x="149.39" y="661.24" width="102.77" height="14.27" rx="1.92" ry="1.92"/>
    <text class="cls-11" transform="translate(164.23 606.96)"><tspan x="0" y="0">1 MIN</tspan><tspan x="0" y="30.6">PHOTO</tspan></text>
  </g>
  <rect class="cls-16" x="704.1" y="380.59" width="22.77" height="41.52"/>
  <circle id="id_light_" data-name="id=&amp;quot;light&amp;quot;" class="cls-9" cx="770.17" cy="401.34" r="54.69"/>
  <g>
    <path class="cls-12" d="M744.42,414.08l-1.16-1.8c3.79-2.44,6.38-2.12,8.18.67,1.88,2.91,1.1,5.79-4.08,9.13-5.18,3.34-8.12,2.85-10-.06-1.8-2.79-1-5.25,1.97-7.16l1.16,1.8c-1.97,1.27-2.94,2.64-1.76,4.48,1.26,1.95,3.27,1.85,7.47-.86,4.2-2.71,5.03-4.43,3.77-6.38-1.18-1.84-2.76-1.62-5.56.18Z"/>
    <path class="cls-12" d="M731.58,404.71l-.18-3.34,16.01-5.22.12,2.25-2.52.72-1.95.46.31,5.6,1.99.24,2.59.44.12,2.14-16.48-3.28ZM741.45,400.02l-1.94.71-6.42,1.87.04.7,6.58,1.13,2.01.49-.27-4.9Z"/>
    <path class="cls-12" d="M733.39,387.59l2.27-4.5c1.33-2.64,3.98-4.01,6.97-2.5,2.76,1.39,3.74,4.21,2.24,7.17l-1.37,2.72,2.02.89,3.34,1.69-.94,1.87-14.53-7.34ZM743.22,387.4c1.17-2.32.37-3.98-1.54-4.95-1.68-.85-3.48-.79-4.69,1.59l-1.27,2.51,2.02.89,2.37,1.2,1.92,1.1,1.18-2.35Z"/>
    <path class="cls-12" d="M750.27,372.17l-1.24-2.11v-.02s-3.71,2.47-3.71,2.47l-.9-1.35,8.9-5.94.9,1.35-3.69,2.47v.02s1.48,1.95,1.48,1.95l6.76,10.13-1.74,1.16-6.76-10.13Z"/>
    <path class="cls-12" d="M771.45,372.42l-.78-10.95,2.09-.15.78,10.95c.24,3.32-.76,5.6-4.48,5.87-3.71.27-5.03-1.85-5.27-5.17l-.78-10.95,2.09-.15.78,10.95c.21,2.97,1.38,3.7,3.05,3.58s2.73-1.01,2.51-3.98Z"/>
    <path class="cls-12" d="M782.58,373.96l-1.84-.89-.93,2.26-1.71,3.56-1.89-.91,7.05-14.67,4.13,1.98c3.21,1.54,3.85,4.07,2.7,6.46-1.08,2.24-3.08,3.03-5.07,2.08l-.3.63c.92.44,1.22,1.33,1.21,2.26l-.07,5.9-2.1-1.01.39-5.21c.06-.87-.42-1.91-1.56-2.45ZM783.29,372.5c2.01.97,3.98.31,4.91-1.64.8-1.66.34-3.17-2.05-4.32l-1.84-.89-.93,2.26-.95,1.97-.98,1.72,1.84.89Z"/>
    <path class="cls-12" d="M788.36,382.94l2.13,3.08,1.85-1.45,6.66-4.6,2.09-1.27h.02s-2.13-3.09-2.13-3.09l1.34-.93,5.29,7.65-1.34.93-2.13-3.08h-.02s-1.93,1.52-1.93,1.52l-6.65,4.6-2.01,1.22,2.13,3.08-1.43.99-5.29-7.65,1.43-.99Z"/>
    <path class="cls-12" d="M809.34,392.42l.32,3.59-14.23,5.43.06.69,8.34-1.29,6.21-.54.18,2.08-16.22,1.42-.32-3.59,14.23-5.43-.06-.69-8.34,1.29-6.21.55-.18-2.09,16.22-1.42Z"/>
    <path class="cls-12" d="M794.28,415.04l1.74.95,1.65-3.59,1.48.68-2.51,5.45-1.48-.68c-4.5-2.07-5.19-4.57-3.93-7.31,1.45-3.15,4.29-4.04,9.89-1.46s6.76,5.32,5.31,8.47c-1.39,3.02-3.89,3.66-7.1,2.18l.9-1.94c2.13.98,3.81,1.06,4.73-.92.97-2.11-.19-3.75-4.73-5.84-4.54-2.09-6.44-1.87-7.41.25-.71,1.54-.08,3.06,1.46,3.77Z"/>
    <path class="cls-12" d="M778.01,430.99l-8.32.87-.17-1.62,8.32-.87.17,1.62Z"/>
  </g>
  <rect class="cls-13" x="25.53" y="188.48" width="750.85" height="69.62"/>
  <rect class="cls-16" x="155.21" y="89.96" width="496.31" height="98.88"/>
  <g>
    <rect class="cls-14" x="166.38" y="100.8" width="473.97" height="77.2"/>
    <text class="cls-10" transform="translate(204.07 155.87)"><tspan x="0" y="0">PHOTOAUTOMAT</tspan></text>
  </g>
</svg>